<svg xmlns="http://www.w3.org/2000/svg" viewBox="-0.5 0 9 9"><rect x="-0.5" width="9" height="9" rx="2" fill="#14110f"/><g transform="translate(1 0.5)"><circle cx="1.5" cy="1" r="0.4" fill="#2a2622"/><circle cx="2.5" cy="1" r="0.4" fill="#ece8df"/><circle cx="3.5" cy="1" r="0.4" fill="#ece8df"/><circle cx="4.5" cy="1" r="0.4" fill="#ece8df"/><circle cx="5.5" cy="1" r="0.4" fill="#ece8df"/><circle cx="1.5" cy="2" r="0.4" fill="#ece8df"/><circle cx="2.5" cy="2" r="0.4" fill="#2a2622"/><circle cx="3.5" cy="2" r="0.4" fill="#2a2622"/><circle cx="4.5" cy="2" r="0.4" fill="#2a2622"/><circle cx="5.5" cy="2" r="0.4" fill="#ece8df"/><circle cx="1.5" cy="3" r="0.4" fill="#ece8df"/><circle cx="2.5" cy="3" r="0.4" fill="#2a2622"/><circle cx="3.5" cy="3" r="0.4" fill="#2a2622"/><circle cx="4.5" cy="3" r="0.4" fill="#2a2622"/><circle cx="5.5" cy="3" r="0.4" fill="#ece8df"/><circle cx="1.5" cy="4" r="0.4" fill="#ece8df"/><circle cx="2.5" cy="4" r="0.4" fill="#2a2622"/><circle cx="3.5" cy="4" r="0.4" fill="#2a2622"/><circle cx="4.5" cy="4" r="0.4" fill="#2a2622"/><circle cx="5.5" cy="4" r="0.4" fill="#ece8df"/><circle cx="1.5" cy="5" r="0.4" fill="#2a2622"/><circle cx="2.5" cy="5" r="0.4" fill="#ece8df"/><circle cx="3.5" cy="5" r="0.4" fill="#ece8df"/><circle cx="4.5" cy="5" r="0.4" fill="#ece8df"/><circle cx="5.5" cy="5" r="0.4" fill="#ece8df"/><circle cx="1.5" cy="6" r="0.4" fill="#2a2622"/><circle cx="2.5" cy="6" r="0.4" fill="#2a2622"/><circle cx="3.5" cy="6" r="0.4" fill="#2a2622"/><circle cx="4.5" cy="6" r="0.4" fill="#2a2622"/><circle cx="5.5" cy="6" r="0.4" fill="#ece8df"/><circle cx="1.5" cy="7" r="0.4" fill="#2a2622"/><circle cx="2.5" cy="7" r="0.4" fill="#f29a6b"/><circle cx="3.5" cy="7" r="0.4" fill="#ece8df"/><circle cx="4.5" cy="7" r="0.4" fill="#ece8df"/><circle cx="5.5" cy="7" r="0.4" fill="#2a2622"/></g></svg>
